# xmcd
#
# Track frame offsets: 
#        182
#        37982
#        65207
#        114107
#        152882
#        172382
#
# Disc length: 3035 seconds
#
# Revision: 1
# Processed by: cddbd v1.5.2PL0 Copyright (c) Steve Scherf et al.
# Submitted via: ExactAudioCopy v0.99pb5
#
DISCID=4f0bd906
DTITLE=Rainer Bruninghaus - Freigeweht
DYEAR=1981
DGENRE=Jazz
TTITLE0=Stufen
TTITLE1=Spielraum
TTITLE2=Radspuren
TTITLE3=Die Flusse hinauf
TTITLE4=Tauschung der Luft
TTITLE5=Freigeweht
EXTD=YEAR: 1981
EXTT0=
EXTT1=
EXTT2=
EXTT3=
EXTT4=
EXTT5=
PLAYORDER=
